<svg xmlns="http://www.w3.org/2000/svg" viewBox="0 0 64 64">
  <defs>
    <linearGradient id="bg" x1="8" y1="6" x2="56" y2="58" gradientUnits="userSpaceOnUse">
      <stop stop-color="#0b2a47"/>
      <stop offset="1" stop-color="#061c32"/>
    </linearGradient>
    <filter id="soft-shadow" x="-20%" y="-20%" width="140%" height="140%">
      <feDropShadow dx="0" dy="1" stdDeviation="1" flood-color="#000" flood-opacity=".24"/>
    </filter>
  </defs>
  <rect x="4" y="4" width="56" height="56" rx="11" fill="url(#bg)"/>
  <g filter="url(#soft-shadow)">
    <rect x="17" y="15" width="8" height="8" rx="1.8" fill="#f8fafc"/>
    <rect x="29" y="15" width="8" height="8" rx="1.8" fill="#f8fafc"/>
    <rect x="41" y="15" width="8" height="8" rx="1.8" fill="#f8fafc"/>
    <rect x="17" y="27" width="8" height="8" rx="1.8" fill="#f8fafc"/>
    <rect x="29" y="27" width="8" height="8" rx="1.8" fill="#48b3b0"/>
    <rect x="41" y="27" width="8" height="8" rx="1.8" fill="#f8fafc"/>
    <rect x="17" y="39" width="8" height="8" rx="1.8" fill="#f8fafc"/>
    <rect x="41" y="43" width="8" height="8" rx="1.8" fill="#f8fafc"/>
  </g>
  <path d="M29 48C30.5 40.5 35.5 38 42 38h7c5.5 0 7-4.5 7-10v-9" fill="none" stroke="#f8bd2f" stroke-width="5.3" stroke-linecap="round" stroke-linejoin="round"/>
  <path d="M56 16l6 9H50z" fill="#f8bd2f" stroke="#f8bd2f" stroke-linejoin="round"/>
  <circle cx="28.5" cy="48.5" r="3.8" fill="#f8fafc" filter="url(#soft-shadow)"/>
</svg>
